<?xml version="1.0"?>
<svg xmlns="http://www.w3.org/2000/svg" xmlns:xlink="http://www.w3.org/1999/xlink" version="1.1" viewBox="0 0 512 512" enable-background="new 0 0 512 512" width="19px" height="19px" class=""><g><g>
    <g>
      <path d="m467.9,165.4c-6.2-60.8-61-108.9-126.2-108.9-13.4,0-26.5,2-39.2,5.9-23.6-31.4-61.6-50.4-103.2-50.4-70,0-126.9,54-126.9,120.4 0,4 0.2,8 0.7,12.1-37.6,21.6-61.1,60.5-61.1,102.9 0,66.4 56.9,120.4 126.9,120.4 11.3,0 20.4-9.1 20.4-20.4 0-11.3-9.1-20.4-20.4-20.4-47.4,0-86-35.7-86-79.5 0-31.3 20-59.8 51-72.6 9.4-3.9 14.5-14.1 12-24-1.6-6.3-2.5-12.5-2.5-18.5 0-43.9 38.6-79.5 86-79.5 32.8,0 62.4,17 77,44.3 5.1,9.5 16.8,13.4 26.6,8.8 12.2-5.7 25.2-8.6 38.7-8.6 46.4,0 84.9,34.9 85.9,77.8 0.1,5.7 2.6,11 6.9,14.8 17.2,15.2 26.6,35.6 26.6,57.4 0,43.9-38.6,79.5-86,79.5-15.2,0-30.3-3.8-43.5-11-9.9-5.4-22.3-1.7-27.7,8.2-5.4,9.9-1.7,22.3 8.2,27.7 19.2,10.4 41,16 63,16 70,0 126.9-54 126.9-120.4 0-30.4-12.3-59.8-34.1-82z" data-original="#000000" class="active-path" data-old_color="#ff333e" fill="#ff333e"/>
      <path d="m310.4,247.2l-59-61.4c-3.9-4-9.2-6.3-14.7-6.3 0,0 0,0 0,0-5.6,0-10.9,2.3-14.7,6.3l-59,61.4c-7.8,8.1-7.6,21.1 0.6,28.9 8.1,7.8 21,7.6 28.9-0.6l23.9-24.9v231c0,11.3 9.1,20.4 20.4,20.4 11.3,0 20.4-9.1 20.4-20.4v-231l23.9,24.9c7.8,8.1 20.7,8.4 28.9,0.6 7.9-7.9 8.2-20.8 0.4-28.9z" data-original="#000000" class="active-path" data-old_color="#ff333e" fill="#ff333e"/>
    </g>
  </g></g> </svg>
